<?xml version="1.0" encoding="UTF-8" standalone="no"?>
<!DOCTYPE svg PUBLIC "-//W3C//DTD SVG 1.1//EN" "http://www.w3.org/Graphics/SVG/1.1/DTD/svg11.dtd">
<svg width="100%" height="100%" viewBox="0 0 2481 3508" version="1.1" xmlns="http://www.w3.org/2000/svg" xmlns:xlink="http://www.w3.org/1999/xlink" xml:space="preserve" xmlns:serif="http://www.serif.com/" style="fill-rule:evenodd;clip-rule:evenodd;stroke-linejoin:round;stroke-miterlimit:2;">
    <g id="レイヤー1">
    </g>
    <g id="レイヤー11" serif:id="レイヤー1" transform="matrix(0.416229,0,0,0.416229,1296.62,2309.11)">
        <g transform="matrix(1.41259,0,0,1.41259,-3099.29,-5424.33)">
            <path d="M979.075,622.36L839.559,671.774C725.514,712.168 665.717,837.553 706.111,951.599C716.456,980.806 732.375,1006.46 752.243,1027.77L615.178,1076.31C498.597,1117.6 437.472,1245.78 478.764,1362.36C491.254,1397.62 511.695,1427.81 537.359,1451.63L439.696,1486.22C299.486,1535.88 225.971,1690.03 275.632,1830.24C325.293,1970.45 479.444,2043.97 619.654,1994.31L807.272,1927.86C859.543,1984.93 934.675,2020.75 1018.11,2020.75L1922.02,2020.75C2079.8,2020.75 2207.89,1892.66 2207.89,1734.88C2207.89,1593.92 2105.65,1476.66 1971.33,1453.26C2013.2,1386.02 2025.22,1301.04 1996.75,1220.64C1963.41,1126.52 1882.99,1062.45 1791.32,1045.53C1807.33,999.225 1808.35,947.394 1790.74,897.673C1758.28,806.04 1672.15,748.668 1580.18,748.36C1584.75,714.871 1581.62,679.818 1569.56,645.775C1557.79,612.542 1538.8,583.916 1514.99,561.042C1508.27,466.844 1347.82,338.861 1347.82,338.861C1267.73,223.638 977.019,130.987 996.365,184.887C1028.78,239.542 1053.88,291.643 1035.62,328.593C995.589,337.134 907.707,520.49 979.075,622.36Z" style="fill:rgb(144,80,0);"/>
        </g>
        <g transform="matrix(1.41259,0,0,1.41259,-2436.75,-7194.38)">
            <circle cx="1096.21" cy="2473.24" r="190.226" style="fill:white;"/>
        </g>
        <g transform="matrix(1.41259,0,0,1.41259,-3345.41,-7194.38)">
            <circle cx="1096.21" cy="2473.24" r="190.226" style="fill:white;"/>
        </g>
        <g transform="matrix(0.70445,0,0,0.70445,-2122.18,-4765.62)">
            <circle cx="1096.21" cy="2473.24" r="190.226" style="fill:rgb(255,120,158);"/>
        </g>
        <g transform="matrix(1.41259,0,0,1.41259,-3099.29,-5424.33)">
            <path d="M1568.72,1130.88C1621.08,1130.88 1663.59,1173.39 1663.59,1225.75C1663.59,1278.11 1621.08,1320.61 1568.72,1320.61C1516.37,1320.61 1473.86,1278.11 1473.86,1225.75C1473.86,1173.39 1516.37,1130.88 1568.72,1130.88ZM921.063,1128.13C973.421,1128.13 1015.93,1170.64 1015.93,1222.99C1015.93,1275.35 973.421,1317.86 921.063,1317.86C868.706,1317.86 826.198,1275.35 826.198,1222.99C826.198,1170.64 868.706,1128.13 921.063,1128.13Z"/>
        </g>
        <g transform="matrix(1.41259,0,0,1.41259,-3099.29,-5424.33)">
            <path d="M979.075,622.36L839.559,671.774C725.514,712.168 665.717,837.553 706.111,951.599C716.456,980.806 732.375,1006.46 752.243,1027.77L615.178,1076.31C498.597,1117.6 437.472,1245.78 478.764,1362.36C491.254,1397.62 511.695,1427.81 537.359,1451.63L439.696,1486.22C299.486,1535.88 225.971,1690.03 275.632,1830.24C325.293,1970.45 479.444,2043.97 619.654,1994.31L807.272,1927.86C859.543,1984.93 934.675,2020.75 1018.11,2020.75L1922.02,2020.75C2079.8,2020.75 2207.89,1892.66 2207.89,1734.88C2207.89,1593.92 2105.65,1476.66 1971.33,1453.26C2013.2,1386.02 2025.22,1301.04 1996.75,1220.64C1963.41,1126.52 1882.99,1062.45 1791.32,1045.53C1807.33,999.225 1808.35,947.394 1790.74,897.673C1758.28,806.04 1672.15,748.668 1580.18,748.36C1584.75,714.871 1581.62,679.818 1569.56,645.775C1557.79,612.542 1538.8,583.916 1514.99,561.042C1508.27,466.844 1347.82,338.861 1347.82,338.861C1267.73,223.638 977.019,130.987 996.365,184.887C1028.78,239.542 1053.88,291.643 1035.62,328.593C995.589,337.134 907.707,520.49 979.075,622.36ZM1238.39,1604.84C1290.75,1604.84 1333.25,1647.35 1333.25,1699.71C1333.25,1752.07 1290.75,1794.57 1238.39,1794.57C1186.03,1794.57 1143.53,1752.07 1143.53,1699.71C1143.53,1647.35 1186.03,1604.84 1238.39,1604.84ZM921.971,1029.95C1026.96,1029.95 1112.2,1115.19 1112.2,1220.18C1112.2,1325.17 1026.96,1410.41 921.971,1410.41C816.982,1410.41 731.745,1325.17 731.745,1220.18C731.745,1115.19 816.982,1029.95 921.971,1029.95ZM1565.23,1029.95C1670.22,1029.95 1755.46,1115.19 1755.46,1220.18C1755.46,1325.17 1670.22,1410.41 1565.23,1410.41C1460.24,1410.41 1375.01,1325.17 1375.01,1220.18C1375.01,1115.19 1460.24,1029.95 1565.23,1029.95Z" style="fill:rgb(144,80,0);"/>
        </g>
        <g transform="matrix(1.41259,0,0,1.41259,-3185.36,-483.16)">
            <path d="M979.075,622.36L839.559,671.774C725.514,712.168 665.717,837.553 706.111,951.599C716.456,980.806 732.375,1006.46 752.243,1027.77L615.178,1076.31C498.597,1117.6 437.472,1245.78 478.764,1362.36C491.254,1397.62 511.695,1427.81 537.359,1451.63L439.696,1486.22C299.486,1535.88 225.971,1690.03 275.632,1830.24C325.293,1970.45 479.444,2043.97 619.654,1994.31L807.272,1927.86C859.543,1984.93 934.675,2020.75 1018.11,2020.75L1922.02,2020.75C2079.8,2020.75 2207.89,1892.66 2207.89,1734.88C2207.89,1593.92 2105.65,1476.66 1971.33,1453.26C2013.2,1386.02 2025.22,1301.04 1996.75,1220.64C1963.41,1126.52 1882.99,1062.45 1791.32,1045.53C1807.33,999.225 1808.35,947.394 1790.74,897.673C1758.28,806.04 1672.15,748.668 1580.18,748.36C1584.75,714.871 1581.62,679.818 1569.56,645.775C1557.79,612.542 1538.8,583.916 1514.99,561.042C1508.27,466.844 1347.82,338.861 1347.82,338.861C1267.73,223.638 977.019,130.987 996.365,184.887C1028.78,239.542 1053.88,291.643 1035.62,328.593C995.589,337.134 907.707,520.49 979.075,622.36Z" style="fill:rgb(144,80,0);"/>
        </g>
        <g transform="matrix(1.41259,0,0,1.41259,-2522.82,-2253.21)">
            <circle cx="1096.21" cy="2473.24" r="190.226" style="fill:white;"/>
        </g>
        <g transform="matrix(1.41259,0,0,1.41259,-3431.49,-2253.21)">
            <circle cx="1096.21" cy="2473.24" r="190.226" style="fill:white;"/>
        </g>
        <g transform="matrix(0.70445,0,0,0.70445,-2208.25,175.553)">
            <circle cx="1096.21" cy="2473.24" r="190.226" style="fill:rgb(255,120,158);"/>
        </g>
        <g transform="matrix(1.41259,0,0,1.41259,-3185.36,-483.16)">
            <path d="M1568.72,1130.88C1621.08,1130.88 1663.59,1173.39 1663.59,1225.75C1663.59,1278.11 1621.08,1320.61 1568.72,1320.61C1516.37,1320.61 1473.86,1278.11 1473.86,1225.75C1473.86,1173.39 1516.37,1130.88 1568.72,1130.88ZM921.063,1128.13C973.421,1128.13 1015.93,1170.64 1015.93,1222.99C1015.93,1275.35 973.421,1317.86 921.063,1317.86C868.706,1317.86 826.198,1275.35 826.198,1222.99C826.198,1170.64 868.706,1128.13 921.063,1128.13Z"/>
        </g>
        <g transform="matrix(1.41259,0,0,1.41259,-3185.36,-483.16)">
            <path d="M979.075,622.36L839.559,671.774C725.514,712.168 665.717,837.553 706.111,951.599C716.456,980.806 732.375,1006.46 752.243,1027.77L615.178,1076.31C498.597,1117.6 437.472,1245.78 478.764,1362.36C491.254,1397.62 511.695,1427.81 537.359,1451.63L439.696,1486.22C299.486,1535.88 225.971,1690.03 275.632,1830.24C325.293,1970.45 479.444,2043.97 619.654,1994.31L807.272,1927.86C859.543,1984.93 934.675,2020.75 1018.11,2020.75L1922.02,2020.75C2079.8,2020.75 2207.89,1892.66 2207.89,1734.88C2207.89,1593.92 2105.65,1476.66 1971.33,1453.26C2013.2,1386.02 2025.22,1301.04 1996.75,1220.64C1963.41,1126.52 1882.99,1062.45 1791.32,1045.53C1807.33,999.225 1808.35,947.394 1790.74,897.673C1758.28,806.04 1672.15,748.668 1580.18,748.36C1584.75,714.871 1581.62,679.818 1569.56,645.775C1557.79,612.542 1538.8,583.916 1514.99,561.042C1508.27,466.844 1347.82,338.861 1347.82,338.861C1267.73,223.638 977.019,130.987 996.365,184.887C1028.78,239.542 1053.88,291.643 1035.62,328.593C995.589,337.134 907.707,520.49 979.075,622.36ZM1238.39,1604.84C1290.75,1604.84 1333.25,1647.35 1333.25,1699.71C1333.25,1752.07 1290.75,1794.57 1238.39,1794.57C1186.03,1794.57 1143.53,1752.07 1143.53,1699.71C1143.53,1647.35 1186.03,1604.84 1238.39,1604.84ZM921.971,1029.95C1026.96,1029.95 1112.2,1115.19 1112.2,1220.18C1112.2,1325.17 1026.96,1410.41 921.971,1410.41C816.982,1410.41 731.745,1325.17 731.745,1220.18C731.745,1115.19 816.982,1029.95 921.971,1029.95ZM1565.23,1029.95C1670.22,1029.95 1755.46,1115.19 1755.46,1220.18C1755.46,1325.17 1670.22,1410.41 1565.23,1410.41C1460.24,1410.41 1375.01,1325.17 1375.01,1220.18C1375.01,1115.19 1460.24,1029.95 1565.23,1029.95Z" style="fill:rgb(144,80,0);"/>
        </g>
        <g transform="matrix(0.990214,0,0,0.990214,62.1504,-5368.45)">
            <path d="M979.075,622.36L839.559,671.774C725.514,712.168 665.717,837.553 706.111,951.599C716.456,980.806 732.375,1006.46 752.243,1027.77L615.178,1076.31C498.597,1117.6 437.472,1245.78 478.764,1362.36C491.254,1397.62 511.695,1427.81 537.359,1451.63L439.696,1486.22C299.486,1535.88 225.971,1690.03 275.632,1830.24C325.293,1970.45 479.444,2043.97 619.654,1994.31L807.272,1927.86C859.543,1984.93 934.675,2020.75 1018.11,2020.75L1922.02,2020.75C2079.8,2020.75 2207.89,1892.66 2207.89,1734.88C2207.89,1593.92 2105.65,1476.66 1971.33,1453.26C2013.2,1386.02 2025.22,1301.04 1996.75,1220.64C1963.41,1126.52 1882.99,1062.45 1791.32,1045.53C1807.33,999.225 1808.35,947.394 1790.74,897.673C1758.28,806.04 1672.15,748.668 1580.18,748.36C1584.75,714.871 1581.62,679.818 1569.56,645.775C1557.79,612.542 1538.8,583.916 1514.99,561.042C1508.27,466.844 1347.82,338.861 1347.82,338.861C1267.73,223.638 977.019,130.987 996.365,184.887C1028.78,239.542 1053.88,291.643 1035.62,328.593C995.589,337.134 907.707,520.49 979.075,622.36Z" style="fill:rgb(144,80,0);"/>
        </g>
        <g transform="matrix(0.990214,0,0,0.990214,526.581,-6609.24)">
            <circle cx="1096.21" cy="2473.24" r="190.226" style="fill:white;"/>
        </g>
        <g transform="matrix(0.990214,0,0,0.990214,-110.384,-6609.24)">
            <circle cx="1096.21" cy="2473.24" r="190.226" style="fill:white;"/>
        </g>
        <g transform="matrix(0.493815,0,0,0.493815,747.095,-4906.7)">
            <circle cx="1096.21" cy="2473.24" r="190.226" style="fill:rgb(255,120,158);"/>
        </g>
        <g transform="matrix(0.990214,0,0,0.990214,62.1504,-5368.45)">
            <path d="M1568.72,1130.88C1621.08,1130.88 1663.59,1173.39 1663.59,1225.75C1663.59,1278.11 1621.08,1320.61 1568.72,1320.61C1516.37,1320.61 1473.86,1278.11 1473.86,1225.75C1473.86,1173.39 1516.37,1130.88 1568.72,1130.88ZM921.063,1128.13C973.421,1128.13 1015.93,1170.64 1015.93,1222.99C1015.93,1275.35 973.421,1317.86 921.063,1317.86C868.706,1317.86 826.198,1275.35 826.198,1222.99C826.198,1170.64 868.706,1128.13 921.063,1128.13Z"/>
        </g>
        <g transform="matrix(0.990214,0,0,0.990214,62.1504,-5368.45)">
            <path d="M979.075,622.36L839.559,671.774C725.514,712.168 665.717,837.553 706.111,951.599C716.456,980.806 732.375,1006.46 752.243,1027.77L615.178,1076.31C498.597,1117.6 437.472,1245.78 478.764,1362.36C491.254,1397.62 511.695,1427.81 537.359,1451.63L439.696,1486.22C299.486,1535.88 225.971,1690.03 275.632,1830.24C325.293,1970.45 479.444,2043.97 619.654,1994.31L807.272,1927.86C859.543,1984.93 934.675,2020.75 1018.11,2020.75L1922.02,2020.75C2079.8,2020.75 2207.89,1892.66 2207.89,1734.88C2207.89,1593.92 2105.65,1476.66 1971.33,1453.26C2013.2,1386.02 2025.22,1301.04 1996.75,1220.64C1963.41,1126.52 1882.99,1062.45 1791.32,1045.53C1807.33,999.225 1808.35,947.394 1790.74,897.673C1758.28,806.04 1672.15,748.668 1580.18,748.36C1584.75,714.871 1581.62,679.818 1569.56,645.775C1557.79,612.542 1538.8,583.916 1514.99,561.042C1508.27,466.844 1347.82,338.861 1347.82,338.861C1267.73,223.638 977.019,130.987 996.365,184.887C1028.78,239.542 1053.88,291.643 1035.62,328.593C995.589,337.134 907.707,520.49 979.075,622.36ZM1238.39,1604.84C1290.75,1604.84 1333.25,1647.35 1333.25,1699.71C1333.25,1752.07 1290.75,1794.57 1238.39,1794.57C1186.03,1794.57 1143.53,1752.07 1143.53,1699.71C1143.53,1647.35 1186.03,1604.84 1238.39,1604.84ZM921.971,1029.95C1026.96,1029.95 1112.2,1115.19 1112.2,1220.18C1112.2,1325.17 1026.96,1410.41 921.971,1410.41C816.982,1410.41 731.745,1325.17 731.745,1220.18C731.745,1115.19 816.982,1029.95 921.971,1029.95ZM1565.23,1029.95C1670.22,1029.95 1755.46,1115.19 1755.46,1220.18C1755.46,1325.17 1670.22,1410.41 1565.23,1410.41C1460.24,1410.41 1375.01,1325.17 1375.01,1220.18C1375.01,1115.19 1460.24,1029.95 1565.23,1029.95Z" style="fill:rgb(144,80,0);"/>
        </g>
        <g transform="matrix(0.990214,0,0,0.990214,202.199,286.882)">
            <path d="M979.075,622.36L839.559,671.774C725.514,712.168 665.717,837.553 706.111,951.599C716.456,980.806 732.375,1006.46 752.243,1027.77L615.178,1076.31C498.597,1117.6 437.472,1245.78 478.764,1362.36C491.254,1397.62 511.695,1427.81 537.359,1451.63L439.696,1486.22C299.486,1535.88 225.971,1690.03 275.632,1830.24C325.293,1970.45 479.444,2043.97 619.654,1994.31L807.272,1927.86C859.543,1984.93 934.675,2020.75 1018.11,2020.75L1922.02,2020.75C2079.8,2020.75 2207.89,1892.66 2207.89,1734.88C2207.89,1593.92 2105.65,1476.66 1971.33,1453.26C2013.2,1386.02 2025.22,1301.04 1996.75,1220.64C1963.41,1126.52 1882.99,1062.45 1791.32,1045.53C1807.33,999.225 1808.35,947.394 1790.74,897.673C1758.28,806.04 1672.15,748.668 1580.18,748.36C1584.75,714.871 1581.62,679.818 1569.56,645.775C1557.79,612.542 1538.8,583.916 1514.99,561.042C1508.27,466.844 1347.82,338.861 1347.82,338.861C1267.73,223.638 977.019,130.987 996.365,184.887C1028.78,239.542 1053.88,291.643 1035.62,328.593C995.589,337.134 907.707,520.49 979.075,622.36Z" style="fill:rgb(144,80,0);"/>
        </g>
        <g transform="matrix(0.990214,0,0,0.990214,666.63,-953.909)">
            <circle cx="1096.21" cy="2473.24" r="190.226" style="fill:white;"/>
        </g>
        <g transform="matrix(0.990214,0,0,0.990214,29.6648,-953.909)">
            <circle cx="1096.21" cy="2473.24" r="190.226" style="fill:white;"/>
        </g>
        <g transform="matrix(0.493815,0,0,0.493815,887.144,748.635)">
            <circle cx="1096.21" cy="2473.24" r="190.226" style="fill:rgb(255,120,158);"/>
        </g>
        <g transform="matrix(0.990214,0,0,0.990214,202.199,286.882)">
            <path d="M1568.72,1130.88C1621.08,1130.88 1663.59,1173.39 1663.59,1225.75C1663.59,1278.11 1621.08,1320.61 1568.72,1320.61C1516.37,1320.61 1473.86,1278.11 1473.86,1225.75C1473.86,1173.39 1516.37,1130.88 1568.72,1130.88ZM921.063,1128.13C973.421,1128.13 1015.93,1170.64 1015.93,1222.99C1015.93,1275.35 973.421,1317.86 921.063,1317.86C868.706,1317.86 826.198,1275.35 826.198,1222.99C826.198,1170.64 868.706,1128.13 921.063,1128.13Z"/>
        </g>
        <g transform="matrix(0.990214,0,0,0.990214,202.199,286.882)">
            <path d="M979.075,622.36L839.559,671.774C725.514,712.168 665.717,837.553 706.111,951.599C716.456,980.806 732.375,1006.46 752.243,1027.77L615.178,1076.31C498.597,1117.6 437.472,1245.78 478.764,1362.36C491.254,1397.62 511.695,1427.81 537.359,1451.63L439.696,1486.22C299.486,1535.88 225.971,1690.03 275.632,1830.24C325.293,1970.45 479.444,2043.97 619.654,1994.31L807.272,1927.86C859.543,1984.93 934.675,2020.75 1018.11,2020.75L1922.02,2020.75C2079.8,2020.75 2207.89,1892.66 2207.89,1734.88C2207.89,1593.92 2105.65,1476.66 1971.33,1453.26C2013.2,1386.02 2025.22,1301.04 1996.75,1220.64C1963.41,1126.52 1882.99,1062.45 1791.32,1045.53C1807.33,999.225 1808.35,947.394 1790.74,897.673C1758.28,806.04 1672.15,748.668 1580.18,748.36C1584.75,714.871 1581.62,679.818 1569.56,645.775C1557.79,612.542 1538.8,583.916 1514.99,561.042C1508.27,466.844 1347.82,338.861 1347.82,338.861C1267.73,223.638 977.019,130.987 996.365,184.887C1028.78,239.542 1053.88,291.643 1035.62,328.593C995.589,337.134 907.707,520.49 979.075,622.36ZM1238.39,1604.84C1290.75,1604.84 1333.25,1647.35 1333.25,1699.71C1333.25,1752.07 1290.75,1794.57 1238.39,1794.57C1186.03,1794.57 1143.53,1752.07 1143.53,1699.71C1143.53,1647.35 1186.03,1604.84 1238.39,1604.84ZM921.971,1029.95C1026.96,1029.95 1112.2,1115.19 1112.2,1220.18C1112.2,1325.17 1026.96,1410.41 921.971,1410.41C816.982,1410.41 731.745,1325.17 731.745,1220.18C731.745,1115.19 816.982,1029.95 921.971,1029.95ZM1565.23,1029.95C1670.22,1029.95 1755.46,1115.19 1755.46,1220.18C1755.46,1325.17 1670.22,1410.41 1565.23,1410.41C1460.24,1410.41 1375.01,1325.17 1375.01,1220.18C1375.01,1115.19 1460.24,1029.95 1565.23,1029.95Z" style="fill:rgb(144,80,0);"/>
        </g>
        <g transform="matrix(0.778068,0,0,0.778068,-2907.6,-2301.36)">
            <path d="M979.075,622.36L839.559,671.774C725.514,712.168 665.717,837.553 706.111,951.599C716.456,980.806 732.375,1006.46 752.243,1027.77L615.178,1076.31C498.597,1117.6 437.472,1245.78 478.764,1362.36C491.254,1397.62 511.695,1427.81 537.359,1451.63L439.696,1486.22C299.486,1535.88 225.971,1690.03 275.632,1830.24C325.293,1970.45 479.444,2043.97 619.654,1994.31L807.272,1927.86C859.543,1984.93 934.675,2020.75 1018.11,2020.75L1922.02,2020.75C2079.8,2020.75 2207.89,1892.66 2207.89,1734.88C2207.89,1593.92 2105.65,1476.66 1971.33,1453.26C2013.2,1386.02 2025.22,1301.04 1996.75,1220.64C1963.41,1126.52 1882.99,1062.45 1791.32,1045.53C1807.33,999.225 1808.35,947.394 1790.74,897.673C1758.28,806.04 1672.15,748.668 1580.18,748.36C1584.75,714.871 1581.62,679.818 1569.56,645.775C1557.79,612.542 1538.8,583.916 1514.99,561.042C1508.27,466.844 1347.82,338.861 1347.82,338.861C1267.73,223.638 977.019,130.987 996.365,184.887C1028.78,239.542 1053.88,291.643 1035.62,328.593C995.589,337.134 907.707,520.49 979.075,622.36Z" style="fill:rgb(144,80,0);"/>
        </g>
        <g transform="matrix(0.778068,0,0,0.778068,-2542.67,-3276.32)">
            <circle cx="1096.21" cy="2473.24" r="190.226" style="fill:white;"/>
        </g>
        <g transform="matrix(0.778068,0,0,0.778068,-3043.17,-3276.32)">
            <circle cx="1096.21" cy="2473.24" r="190.226" style="fill:white;"/>
        </g>
        <g transform="matrix(0.388019,0,0,0.388019,-2369.4,-1938.54)">
            <circle cx="1096.21" cy="2473.24" r="190.226" style="fill:rgb(255,120,158);"/>
        </g>
        <g transform="matrix(0.778068,0,0,0.778068,-2907.6,-2301.36)">
            <path d="M1568.72,1130.88C1621.08,1130.88 1663.59,1173.39 1663.59,1225.75C1663.59,1278.11 1621.08,1320.61 1568.72,1320.61C1516.37,1320.61 1473.86,1278.11 1473.86,1225.75C1473.86,1173.39 1516.37,1130.88 1568.72,1130.88ZM921.063,1128.13C973.421,1128.13 1015.93,1170.64 1015.93,1222.99C1015.93,1275.35 973.421,1317.86 921.063,1317.86C868.706,1317.86 826.198,1275.35 826.198,1222.99C826.198,1170.64 868.706,1128.13 921.063,1128.13Z"/>
        </g>
        <g transform="matrix(0.778068,0,0,0.778068,-2907.6,-2301.36)">
            <path d="M979.075,622.36L839.559,671.774C725.514,712.168 665.717,837.553 706.111,951.599C716.456,980.806 732.375,1006.46 752.243,1027.77L615.178,1076.31C498.597,1117.6 437.472,1245.78 478.764,1362.36C491.254,1397.62 511.695,1427.81 537.359,1451.63L439.696,1486.22C299.486,1535.88 225.971,1690.03 275.632,1830.24C325.293,1970.45 479.444,2043.97 619.654,1994.31L807.272,1927.86C859.543,1984.93 934.675,2020.75 1018.11,2020.75L1922.02,2020.75C2079.8,2020.75 2207.89,1892.66 2207.89,1734.88C2207.89,1593.92 2105.65,1476.66 1971.33,1453.26C2013.2,1386.02 2025.22,1301.04 1996.75,1220.64C1963.41,1126.52 1882.99,1062.45 1791.32,1045.53C1807.33,999.225 1808.35,947.394 1790.74,897.673C1758.28,806.04 1672.15,748.668 1580.18,748.36C1584.75,714.871 1581.62,679.818 1569.56,645.775C1557.79,612.542 1538.8,583.916 1514.99,561.042C1508.27,466.844 1347.82,338.861 1347.82,338.861C1267.73,223.638 977.019,130.987 996.365,184.887C1028.78,239.542 1053.88,291.643 1035.62,328.593C995.589,337.134 907.707,520.49 979.075,622.36ZM1238.39,1604.84C1290.75,1604.84 1333.25,1647.35 1333.25,1699.71C1333.25,1752.07 1290.75,1794.57 1238.39,1794.57C1186.03,1794.57 1143.53,1752.07 1143.53,1699.71C1143.53,1647.35 1186.03,1604.84 1238.39,1604.84ZM921.971,1029.95C1026.96,1029.95 1112.2,1115.19 1112.2,1220.18C1112.2,1325.17 1026.96,1410.41 921.971,1410.41C816.982,1410.41 731.745,1325.17 731.745,1220.18C731.745,1115.19 816.982,1029.95 921.971,1029.95ZM1565.23,1029.95C1670.22,1029.95 1755.46,1115.19 1755.46,1220.18C1755.46,1325.17 1670.22,1410.41 1565.23,1410.41C1460.24,1410.41 1375.01,1325.17 1375.01,1220.18C1375.01,1115.19 1460.24,1029.95 1565.23,1029.95Z" style="fill:rgb(144,80,0);"/>
        </g>
        <g transform="matrix(0.778068,0,0,0.778068,-1197.33,-2118.27)">
            <path d="M979.075,622.36L839.559,671.774C725.514,712.168 665.717,837.553 706.111,951.599C716.456,980.806 732.375,1006.46 752.243,1027.77L615.178,1076.31C498.597,1117.6 437.472,1245.78 478.764,1362.36C491.254,1397.62 511.695,1427.81 537.359,1451.63L439.696,1486.22C299.486,1535.88 225.971,1690.03 275.632,1830.24C325.293,1970.45 479.444,2043.97 619.654,1994.31L807.272,1927.86C859.543,1984.93 934.675,2020.75 1018.11,2020.75L1922.02,2020.75C2079.8,2020.75 2207.89,1892.66 2207.89,1734.88C2207.89,1593.92 2105.65,1476.66 1971.33,1453.26C2013.2,1386.02 2025.22,1301.04 1996.75,1220.64C1963.41,1126.52 1882.99,1062.45 1791.32,1045.53C1807.33,999.225 1808.35,947.394 1790.74,897.673C1758.28,806.04 1672.15,748.668 1580.18,748.36C1584.75,714.871 1581.62,679.818 1569.56,645.775C1557.79,612.542 1538.8,583.916 1514.99,561.042C1508.27,466.844 1347.82,338.861 1347.82,338.861C1267.73,223.638 977.019,130.987 996.365,184.887C1028.78,239.542 1053.88,291.643 1035.62,328.593C995.589,337.134 907.707,520.49 979.075,622.36Z" style="fill:rgb(144,80,0);"/>
        </g>
        <g transform="matrix(0.778068,0,0,0.778068,-832.403,-3093.23)">
            <circle cx="1096.21" cy="2473.24" r="190.226" style="fill:white;"/>
        </g>
        <g transform="matrix(0.778068,0,0,0.778068,-1332.9,-3093.23)">
            <circle cx="1096.21" cy="2473.24" r="190.226" style="fill:white;"/>
        </g>
        <g transform="matrix(0.388019,0,0,0.388019,-659.132,-1755.44)">
            <circle cx="1096.21" cy="2473.24" r="190.226" style="fill:rgb(255,120,158);"/>
        </g>
        <g transform="matrix(0.778068,0,0,0.778068,-1197.33,-2118.27)">
            <path d="M1568.72,1130.88C1621.08,1130.88 1663.59,1173.39 1663.59,1225.75C1663.59,1278.11 1621.08,1320.61 1568.72,1320.61C1516.37,1320.61 1473.86,1278.11 1473.86,1225.75C1473.86,1173.39 1516.37,1130.88 1568.72,1130.88ZM921.063,1128.13C973.421,1128.13 1015.93,1170.64 1015.93,1222.99C1015.93,1275.35 973.421,1317.86 921.063,1317.86C868.706,1317.86 826.198,1275.35 826.198,1222.99C826.198,1170.64 868.706,1128.13 921.063,1128.13Z"/>
        </g>
        <g transform="matrix(0.778068,0,0,0.778068,-1197.33,-2118.27)">
            <path d="M979.075,622.36L839.559,671.774C725.514,712.168 665.717,837.553 706.111,951.599C716.456,980.806 732.375,1006.46 752.243,1027.77L615.178,1076.31C498.597,1117.6 437.472,1245.78 478.764,1362.36C491.254,1397.62 511.695,1427.81 537.359,1451.63L439.696,1486.22C299.486,1535.88 225.971,1690.03 275.632,1830.24C325.293,1970.45 479.444,2043.97 619.654,1994.31L807.272,1927.86C859.543,1984.93 934.675,2020.75 1018.11,2020.75L1922.02,2020.75C2079.8,2020.75 2207.89,1892.66 2207.89,1734.88C2207.89,1593.92 2105.65,1476.66 1971.33,1453.26C2013.2,1386.02 2025.22,1301.04 1996.75,1220.64C1963.41,1126.52 1882.99,1062.45 1791.32,1045.53C1807.33,999.225 1808.35,947.394 1790.74,897.673C1758.28,806.04 1672.15,748.668 1580.18,748.36C1584.75,714.871 1581.62,679.818 1569.56,645.775C1557.79,612.542 1538.8,583.916 1514.99,561.042C1508.27,466.844 1347.82,338.861 1347.82,338.861C1267.73,223.638 977.019,130.987 996.365,184.887C1028.78,239.542 1053.88,291.643 1035.62,328.593C995.589,337.134 907.707,520.49 979.075,622.36ZM1238.39,1604.84C1290.75,1604.84 1333.25,1647.35 1333.25,1699.71C1333.25,1752.07 1290.75,1794.57 1238.39,1794.57C1186.03,1794.57 1143.53,1752.07 1143.53,1699.71C1143.53,1647.35 1186.03,1604.84 1238.39,1604.84ZM921.971,1029.95C1026.96,1029.95 1112.2,1115.19 1112.2,1220.18C1112.2,1325.17 1026.96,1410.41 921.971,1410.41C816.982,1410.41 731.745,1325.17 731.745,1220.18C731.745,1115.19 816.982,1029.95 921.971,1029.95ZM1565.23,1029.95C1670.22,1029.95 1755.46,1115.19 1755.46,1220.18C1755.46,1325.17 1670.22,1410.41 1565.23,1410.41C1460.24,1410.41 1375.01,1325.17 1375.01,1220.18C1375.01,1115.19 1460.24,1029.95 1565.23,1029.95Z" style="fill:rgb(144,80,0);"/>
        </g>
        <g transform="matrix(0.656186,0,0,0.681294,-283.428,-1328.27)">
            <circle cx="1096.21" cy="2473.24" r="190.226" style="fill:white;"/>
        </g>
        <g transform="matrix(0.656186,0,0,0.681294,-705.526,-1328.27)">
            <circle cx="1096.21" cy="2473.24" r="190.226" style="fill:white;"/>
        </g>
        <g transform="matrix(0.327237,0,0,0.339758,-137.3,-156.871)">
            <circle cx="1096.21" cy="2473.24" r="190.226" style="fill:rgb(255,120,158);"/>
        </g>
        <g transform="matrix(0.656186,0,0,0.681294,-591.193,-474.569)">
            <path d="M1568.72,1130.88C1621.08,1130.88 1663.59,1173.39 1663.59,1225.75C1663.59,1278.11 1621.08,1320.61 1568.72,1320.61C1516.37,1320.61 1473.86,1278.11 1473.86,1225.75C1473.86,1173.39 1516.37,1130.88 1568.72,1130.88ZM921.063,1128.13C973.421,1128.13 1015.93,1170.64 1015.93,1222.99C1015.93,1275.35 973.421,1317.86 921.063,1317.86C868.706,1317.86 826.198,1275.35 826.198,1222.99C826.198,1170.64 868.706,1128.13 921.063,1128.13Z"/>
        </g>
        <g transform="matrix(0.656186,0,0,0.681294,-283.428,-1328.27)">
            <circle cx="1096.21" cy="2473.24" r="190.226" style="fill:white;"/>
        </g>
        <g transform="matrix(0.656186,0,0,0.681294,-705.526,-1328.27)">
            <circle cx="1096.21" cy="2473.24" r="190.226" style="fill:white;"/>
        </g>
        <g transform="matrix(0.327237,0,0,0.339758,-137.3,-156.871)">
            <circle cx="1096.21" cy="2473.24" r="190.226" style="fill:rgb(255,120,158);"/>
        </g>
        <g transform="matrix(0.656186,0,0,0.681294,-591.193,-474.569)">
            <path d="M1568.72,1130.88C1621.08,1130.88 1663.59,1173.39 1663.59,1225.75C1663.59,1278.11 1621.08,1320.61 1568.72,1320.61C1516.37,1320.61 1473.86,1278.11 1473.86,1225.75C1473.86,1173.39 1516.37,1130.88 1568.72,1130.88ZM921.063,1128.13C973.421,1128.13 1015.93,1170.64 1015.93,1222.99C1015.93,1275.35 973.421,1317.86 921.063,1317.86C868.706,1317.86 826.198,1275.35 826.198,1222.99C826.198,1170.64 868.706,1128.13 921.063,1128.13Z"/>
        </g>
        <g transform="matrix(0.656186,0,0,0.681294,-591.193,-474.569)">
            <path d="M979.075,622.36L839.559,671.774C725.514,712.168 665.717,837.553 706.111,951.599C716.456,980.806 732.375,1006.46 752.243,1027.77L615.178,1076.31C498.597,1117.6 437.472,1245.78 478.764,1362.36C491.254,1397.62 511.695,1427.81 537.359,1451.63L439.696,1486.22C299.486,1535.88 225.971,1690.03 275.632,1830.24C325.293,1970.45 479.444,2043.97 619.654,1994.31L807.272,1927.86C859.543,1984.93 934.675,2020.75 1018.11,2020.75L1922.02,2020.75C2079.8,2020.75 2207.89,1892.66 2207.89,1734.88C2207.89,1593.92 2105.65,1476.66 1971.33,1453.26C2013.2,1386.02 2025.22,1301.04 1996.75,1220.64C1963.41,1126.52 1882.99,1062.45 1791.32,1045.53C1807.33,999.225 1808.35,947.394 1790.74,897.673C1758.28,806.04 1672.15,748.668 1580.18,748.36C1584.75,714.871 1581.62,679.818 1569.56,645.775C1557.79,612.542 1538.8,583.916 1514.99,561.042C1508.27,466.844 1347.82,338.861 1347.82,338.861C1267.73,223.638 977.019,130.987 996.365,184.887C1028.78,239.542 1053.88,291.643 1035.62,328.593C995.589,337.134 907.707,520.49 979.075,622.36ZM1238.39,1604.84C1290.75,1604.84 1333.25,1647.35 1333.25,1699.71C1333.25,1752.07 1290.75,1794.57 1238.39,1794.57C1186.03,1794.57 1143.53,1752.07 1143.53,1699.71C1143.53,1647.35 1186.03,1604.84 1238.39,1604.84ZM921.971,1029.95C1026.96,1029.95 1112.2,1115.19 1112.2,1220.18C1112.2,1325.17 1026.96,1410.41 921.971,1410.41C816.982,1410.41 731.745,1325.17 731.745,1220.18C731.745,1115.19 816.982,1029.95 921.971,1029.95ZM1565.23,1029.95C1670.22,1029.95 1755.46,1115.19 1755.46,1220.18C1755.46,1325.17 1670.22,1410.41 1565.23,1410.41C1460.24,1410.41 1375.01,1325.17 1375.01,1220.18C1375.01,1115.19 1460.24,1029.95 1565.23,1029.95Z" style="fill:rgb(144,80,0);"/>
        </g>
        <g transform="matrix(0.656186,0,0,0.681294,-78.5019,-3167.39)">
            <path d="M979.075,622.36L839.559,671.774C725.514,712.168 665.717,837.553 706.111,951.599C716.456,980.806 732.375,1006.46 752.243,1027.77L615.178,1076.31C498.597,1117.6 437.472,1245.78 478.764,1362.36C491.254,1397.62 511.695,1427.81 537.359,1451.63L439.696,1486.22C299.486,1535.88 225.971,1690.03 275.632,1830.24C325.293,1970.45 479.444,2043.97 619.654,1994.31L807.272,1927.86C859.543,1984.93 934.675,2020.75 1018.11,2020.75L1922.02,2020.75C2079.8,2020.75 2207.89,1892.66 2207.89,1734.88C2207.89,1593.92 2105.65,1476.66 1971.33,1453.26C2013.2,1386.02 2025.22,1301.04 1996.75,1220.64C1963.41,1126.52 1882.99,1062.45 1791.32,1045.53C1807.33,999.225 1808.35,947.394 1790.74,897.673C1758.28,806.04 1672.15,748.668 1580.18,748.36C1584.75,714.871 1581.62,679.818 1569.56,645.775C1557.79,612.542 1538.8,583.916 1514.99,561.042C1508.27,466.844 1347.82,338.861 1347.82,338.861C1267.73,223.638 977.019,130.987 996.365,184.887C1028.78,239.542 1053.88,291.643 1035.62,328.593C995.589,337.134 907.707,520.49 979.075,622.36Z" style="fill:rgb(144,80,0);"/>
        </g>
        <g transform="matrix(0.656186,0,0,0.681294,229.263,-4021.09)">
            <circle cx="1096.21" cy="2473.24" r="190.226" style="fill:white;"/>
        </g>
        <g transform="matrix(0.656186,0,0,0.681294,-192.835,-4021.09)">
            <circle cx="1096.21" cy="2473.24" r="190.226" style="fill:white;"/>
        </g>
        <g transform="matrix(0.327237,0,0,0.339758,375.391,-2849.69)">
            <circle cx="1096.21" cy="2473.24" r="190.226" style="fill:rgb(255,120,158);"/>
        </g>
        <g transform="matrix(0.656186,0,0,0.681294,-78.5019,-3167.39)">
            <path d="M1568.72,1130.88C1621.08,1130.88 1663.59,1173.39 1663.59,1225.75C1663.59,1278.11 1621.08,1320.61 1568.72,1320.61C1516.37,1320.61 1473.86,1278.11 1473.86,1225.75C1473.86,1173.39 1516.37,1130.88 1568.72,1130.88ZM921.063,1128.13C973.421,1128.13 1015.93,1170.64 1015.93,1222.99C1015.93,1275.35 973.421,1317.86 921.063,1317.86C868.706,1317.86 826.198,1275.35 826.198,1222.99C826.198,1170.64 868.706,1128.13 921.063,1128.13Z"/>
        </g>
        <g transform="matrix(0.656186,0,0,0.681294,-78.5019,-3167.39)">
            <path d="M979.075,622.36L839.559,671.774C725.514,712.168 665.717,837.553 706.111,951.599C716.456,980.806 732.375,1006.46 752.243,1027.77L615.178,1076.31C498.597,1117.6 437.472,1245.78 478.764,1362.36C491.254,1397.62 511.695,1427.81 537.359,1451.63L439.696,1486.22C299.486,1535.88 225.971,1690.03 275.632,1830.24C325.293,1970.45 479.444,2043.97 619.654,1994.31L807.272,1927.86C859.543,1984.93 934.675,2020.75 1018.11,2020.75L1922.02,2020.75C2079.8,2020.75 2207.89,1892.66 2207.89,1734.88C2207.89,1593.92 2105.65,1476.66 1971.33,1453.26C2013.2,1386.02 2025.22,1301.04 1996.75,1220.64C1963.41,1126.52 1882.99,1062.45 1791.32,1045.53C1807.33,999.225 1808.35,947.394 1790.74,897.673C1758.28,806.04 1672.15,748.668 1580.18,748.36C1584.75,714.871 1581.62,679.818 1569.56,645.775C1557.79,612.542 1538.8,583.916 1514.99,561.042C1508.27,466.844 1347.82,338.861 1347.82,338.861C1267.73,223.638 977.019,130.987 996.365,184.887C1028.78,239.542 1053.88,291.643 1035.62,328.593C995.589,337.134 907.707,520.49 979.075,622.36ZM1238.39,1604.84C1290.75,1604.84 1333.25,1647.35 1333.25,1699.71C1333.25,1752.07 1290.75,1794.57 1238.39,1794.57C1186.03,1794.57 1143.53,1752.07 1143.53,1699.71C1143.53,1647.35 1186.03,1604.84 1238.39,1604.84ZM921.971,1029.95C1026.96,1029.95 1112.2,1115.19 1112.2,1220.18C1112.2,1325.17 1026.96,1410.41 921.971,1410.41C816.982,1410.41 731.745,1325.17 731.745,1220.18C731.745,1115.19 816.982,1029.95 921.971,1029.95ZM1565.23,1029.95C1670.22,1029.95 1755.46,1115.19 1755.46,1220.18C1755.46,1325.17 1670.22,1410.41 1565.23,1410.41C1460.24,1410.41 1375.01,1325.17 1375.01,1220.18C1375.01,1115.19 1460.24,1029.95 1565.23,1029.95Z" style="fill:rgb(144,80,0);"/>
        </g>
        <g transform="matrix(0.656186,0,0,0.681294,-78.5019,-3167.39)">
            <path d="M979.075,622.36L839.559,671.774C725.514,712.168 665.717,837.553 706.111,951.599C716.456,980.806 732.375,1006.46 752.243,1027.77L615.178,1076.31C498.597,1117.6 437.472,1245.78 478.764,1362.36C491.254,1397.62 511.695,1427.81 537.359,1451.63L439.696,1486.22C299.486,1535.88 225.971,1690.03 275.632,1830.24C325.293,1970.45 479.444,2043.97 619.654,1994.31L807.272,1927.86C859.543,1984.93 934.675,2020.75 1018.11,2020.75L1922.02,2020.75C2079.8,2020.75 2207.89,1892.66 2207.89,1734.88C2207.89,1593.92 2105.65,1476.66 1971.33,1453.26C2013.2,1386.02 2025.22,1301.04 1996.75,1220.64C1963.41,1126.52 1882.99,1062.45 1791.32,1045.53C1807.33,999.225 1808.35,947.394 1790.74,897.673C1758.28,806.04 1672.15,748.668 1580.18,748.36C1584.75,714.871 1581.62,679.818 1569.56,645.775C1557.79,612.542 1538.8,583.916 1514.99,561.042C1508.27,466.844 1347.82,338.861 1347.82,338.861C1267.73,223.638 977.019,130.987 996.365,184.887C1028.78,239.542 1053.88,291.643 1035.62,328.593C995.589,337.134 907.707,520.49 979.075,622.36Z" style="fill:rgb(144,80,0);"/>
        </g>
        <g transform="matrix(0.656186,0,0,0.681294,229.263,-4021.09)">
            <circle cx="1096.21" cy="2473.24" r="190.226" style="fill:white;"/>
        </g>
        <g transform="matrix(0.656186,0,0,0.681294,-192.835,-4021.09)">
            <circle cx="1096.21" cy="2473.24" r="190.226" style="fill:white;"/>
        </g>
        <g transform="matrix(0.327237,0,0,0.339758,375.391,-2849.69)">
            <circle cx="1096.21" cy="2473.24" r="190.226" style="fill:rgb(255,120,158);"/>
        </g>
        <g transform="matrix(0.656186,0,0,0.681294,-78.5019,-3167.39)">
            <path d="M1568.72,1130.88C1621.08,1130.88 1663.59,1173.39 1663.59,1225.75C1663.59,1278.11 1621.08,1320.61 1568.72,1320.61C1516.37,1320.61 1473.86,1278.11 1473.86,1225.75C1473.86,1173.39 1516.37,1130.88 1568.72,1130.88ZM921.063,1128.13C973.421,1128.13 1015.93,1170.64 1015.93,1222.99C1015.93,1275.35 973.421,1317.86 921.063,1317.86C868.706,1317.86 826.198,1275.35 826.198,1222.99C826.198,1170.64 868.706,1128.13 921.063,1128.13Z"/>
        </g>
        <g transform="matrix(0.656186,0,0,0.681294,-78.5019,-3167.39)">
            <path d="M979.075,622.36L839.559,671.774C725.514,712.168 665.717,837.553 706.111,951.599C716.456,980.806 732.375,1006.46 752.243,1027.77L615.178,1076.31C498.597,1117.6 437.472,1245.78 478.764,1362.36C491.254,1397.62 511.695,1427.81 537.359,1451.63L439.696,1486.22C299.486,1535.88 225.971,1690.03 275.632,1830.24C325.293,1970.45 479.444,2043.97 619.654,1994.31L807.272,1927.86C859.543,1984.93 934.675,2020.75 1018.11,2020.75L1922.02,2020.75C2079.8,2020.75 2207.89,1892.66 2207.89,1734.88C2207.89,1593.92 2105.65,1476.66 1971.33,1453.26C2013.2,1386.02 2025.22,1301.04 1996.75,1220.64C1963.41,1126.52 1882.99,1062.45 1791.32,1045.53C1807.33,999.225 1808.35,947.394 1790.74,897.673C1758.28,806.04 1672.15,748.668 1580.18,748.36C1584.75,714.871 1581.62,679.818 1569.56,645.775C1557.79,612.542 1538.8,583.916 1514.99,561.042C1508.27,466.844 1347.82,338.861 1347.82,338.861C1267.73,223.638 977.019,130.987 996.365,184.887C1028.78,239.542 1053.88,291.643 1035.62,328.593C995.589,337.134 907.707,520.49 979.075,622.36ZM1238.39,1604.84C1290.75,1604.84 1333.25,1647.35 1333.25,1699.71C1333.25,1752.07 1290.75,1794.57 1238.39,1794.57C1186.03,1794.57 1143.53,1752.07 1143.53,1699.71C1143.53,1647.35 1186.03,1604.84 1238.39,1604.84ZM921.971,1029.95C1026.96,1029.95 1112.2,1115.19 1112.2,1220.18C1112.2,1325.17 1026.96,1410.41 921.971,1410.41C816.982,1410.41 731.745,1325.17 731.745,1220.18C731.745,1115.19 816.982,1029.95 921.971,1029.95ZM1565.23,1029.95C1670.22,1029.95 1755.46,1115.19 1755.46,1220.18C1755.46,1325.17 1670.22,1410.41 1565.23,1410.41C1460.24,1410.41 1375.01,1325.17 1375.01,1220.18C1375.01,1115.19 1460.24,1029.95 1565.23,1029.95Z" style="fill:rgb(144,80,0);"/>
        </g>
        <g transform="matrix(0.549224,0,0,0.57024,1478.98,-3190.56)">
            <path d="M979.075,622.36L839.559,671.774C725.514,712.168 665.717,837.553 706.111,951.599C716.456,980.806 732.375,1006.46 752.243,1027.77L615.178,1076.31C498.597,1117.6 437.472,1245.78 478.764,1362.36C491.254,1397.62 511.695,1427.81 537.359,1451.63L439.696,1486.22C299.486,1535.88 225.971,1690.03 275.632,1830.24C325.293,1970.45 479.444,2043.97 619.654,1994.31L807.272,1927.86C859.543,1984.93 934.675,2020.75 1018.11,2020.75L1922.02,2020.75C2079.8,2020.75 2207.89,1892.66 2207.89,1734.88C2207.89,1593.92 2105.65,1476.66 1971.33,1453.26C2013.2,1386.02 2025.22,1301.04 1996.75,1220.64C1963.41,1126.52 1882.99,1062.45 1791.32,1045.53C1807.33,999.225 1808.35,947.394 1790.74,897.673C1758.28,806.04 1672.15,748.668 1580.18,748.36C1584.75,714.871 1581.62,679.818 1569.56,645.775C1557.79,612.542 1538.8,583.916 1514.99,561.042C1508.27,466.844 1347.82,338.861 1347.82,338.861C1267.73,223.638 977.019,130.987 996.365,184.887C1028.78,239.542 1053.88,291.643 1035.62,328.593C995.589,337.134 907.707,520.49 979.075,622.36Z" style="fill:rgb(144,80,0);"/>
        </g>
        <g transform="matrix(0.549224,0,0,0.57024,1736.57,-3905.1)">
            <circle cx="1096.21" cy="2473.24" r="190.226" style="fill:white;"/>
        </g>
        <g transform="matrix(0.549224,0,0,0.57024,1383.28,-3905.1)">
            <circle cx="1096.21" cy="2473.24" r="190.226" style="fill:white;"/>
        </g>
        <g transform="matrix(0.273896,0,0,0.284376,1858.88,-2924.65)">
            <circle cx="1096.21" cy="2473.24" r="190.226" style="fill:rgb(255,120,158);"/>
        </g>
        <g transform="matrix(0.549224,0,0,0.57024,1478.98,-3190.56)">
            <path d="M1568.72,1130.88C1621.08,1130.88 1663.59,1173.39 1663.59,1225.75C1663.59,1278.11 1621.08,1320.61 1568.72,1320.61C1516.37,1320.61 1473.86,1278.11 1473.86,1225.75C1473.86,1173.39 1516.37,1130.88 1568.72,1130.88ZM921.063,1128.13C973.421,1128.13 1015.93,1170.64 1015.93,1222.99C1015.93,1275.35 973.421,1317.86 921.063,1317.86C868.706,1317.86 826.198,1275.35 826.198,1222.99C826.198,1170.64 868.706,1128.13 921.063,1128.13Z"/>
        </g>
        <g transform="matrix(0.549224,0,0,0.57024,1478.98,-3190.56)">
            <path d="M979.075,622.36L839.559,671.774C725.514,712.168 665.717,837.553 706.111,951.599C716.456,980.806 732.375,1006.46 752.243,1027.77L615.178,1076.31C498.597,1117.6 437.472,1245.78 478.764,1362.36C491.254,1397.62 511.695,1427.81 537.359,1451.63L439.696,1486.22C299.486,1535.88 225.971,1690.03 275.632,1830.24C325.293,1970.45 479.444,2043.97 619.654,1994.31L807.272,1927.86C859.543,1984.93 934.675,2020.75 1018.11,2020.75L1922.02,2020.75C2079.8,2020.75 2207.89,1892.66 2207.89,1734.88C2207.89,1593.92 2105.65,1476.66 1971.33,1453.26C2013.2,1386.02 2025.22,1301.04 1996.75,1220.64C1963.41,1126.52 1882.99,1062.45 1791.32,1045.53C1807.33,999.225 1808.35,947.394 1790.74,897.673C1758.28,806.04 1672.15,748.668 1580.18,748.36C1584.75,714.871 1581.62,679.818 1569.56,645.775C1557.79,612.542 1538.8,583.916 1514.99,561.042C1508.27,466.844 1347.82,338.861 1347.82,338.861C1267.73,223.638 977.019,130.987 996.365,184.887C1028.78,239.542 1053.88,291.643 1035.62,328.593C995.589,337.134 907.707,520.49 979.075,622.36ZM1238.39,1604.84C1290.75,1604.84 1333.25,1647.35 1333.25,1699.71C1333.25,1752.07 1290.75,1794.57 1238.39,1794.57C1186.03,1794.57 1143.53,1752.07 1143.53,1699.71C1143.53,1647.35 1186.03,1604.84 1238.39,1604.84ZM921.971,1029.95C1026.96,1029.95 1112.2,1115.19 1112.2,1220.18C1112.2,1325.17 1026.96,1410.41 921.971,1410.41C816.982,1410.41 731.745,1325.17 731.745,1220.18C731.745,1115.19 816.982,1029.95 921.971,1029.95ZM1565.23,1029.95C1670.22,1029.95 1755.46,1115.19 1755.46,1220.18C1755.46,1325.17 1670.22,1410.41 1565.23,1410.41C1460.24,1410.41 1375.01,1325.17 1375.01,1220.18C1375.01,1115.19 1460.24,1029.95 1565.23,1029.95Z" style="fill:rgb(144,80,0);"/>
        </g>
        <g transform="matrix(0.549224,0,0,0.57024,1458.76,-773.503)">
            <path d="M979.075,622.36L839.559,671.774C725.514,712.168 665.717,837.553 706.111,951.599C716.456,980.806 732.375,1006.46 752.243,1027.77L615.178,1076.31C498.597,1117.6 437.472,1245.78 478.764,1362.36C491.254,1397.62 511.695,1427.81 537.359,1451.63L439.696,1486.22C299.486,1535.88 225.971,1690.03 275.632,1830.24C325.293,1970.45 479.444,2043.97 619.654,1994.31L807.272,1927.86C859.543,1984.93 934.675,2020.75 1018.11,2020.75L1922.02,2020.75C2079.8,2020.75 2207.89,1892.66 2207.89,1734.88C2207.89,1593.92 2105.65,1476.66 1971.33,1453.26C2013.2,1386.02 2025.22,1301.04 1996.75,1220.64C1963.41,1126.52 1882.99,1062.45 1791.32,1045.53C1807.33,999.225 1808.35,947.394 1790.74,897.673C1758.28,806.04 1672.15,748.668 1580.18,748.36C1584.75,714.871 1581.62,679.818 1569.56,645.775C1557.79,612.542 1538.8,583.916 1514.99,561.042C1508.27,466.844 1347.82,338.861 1347.82,338.861C1267.73,223.638 977.019,130.987 996.365,184.887C1028.78,239.542 1053.88,291.643 1035.62,328.593C995.589,337.134 907.707,520.49 979.075,622.36Z" style="fill:rgb(144,80,0);"/>
        </g>
        <g transform="matrix(0.549224,0,0,0.57024,1716.36,-1488.04)">
            <circle cx="1096.21" cy="2473.24" r="190.226" style="fill:white;"/>
        </g>
        <g transform="matrix(0.549224,0,0,0.57024,1363.06,-1488.04)">
            <circle cx="1096.21" cy="2473.24" r="190.226" style="fill:white;"/>
        </g>
        <g transform="matrix(0.273896,0,0,0.284376,1838.67,-507.591)">
            <circle cx="1096.21" cy="2473.24" r="190.226" style="fill:rgb(255,120,158);"/>
        </g>
        <g transform="matrix(0.549224,0,0,0.57024,1458.76,-773.503)">
            <path d="M1568.72,1130.88C1621.08,1130.88 1663.59,1173.39 1663.59,1225.75C1663.59,1278.11 1621.08,1320.61 1568.72,1320.61C1516.37,1320.61 1473.86,1278.11 1473.86,1225.75C1473.86,1173.39 1516.37,1130.88 1568.72,1130.88ZM921.063,1128.13C973.421,1128.13 1015.93,1170.64 1015.93,1222.99C1015.93,1275.35 973.421,1317.86 921.063,1317.86C868.706,1317.86 826.198,1275.35 826.198,1222.99C826.198,1170.64 868.706,1128.13 921.063,1128.13Z"/>
        </g>
        <g transform="matrix(0.549224,0,0,0.57024,1458.76,-773.503)">
            <path d="M979.075,622.36L839.559,671.774C725.514,712.168 665.717,837.553 706.111,951.599C716.456,980.806 732.375,1006.46 752.243,1027.77L615.178,1076.31C498.597,1117.6 437.472,1245.78 478.764,1362.36C491.254,1397.62 511.695,1427.81 537.359,1451.63L439.696,1486.22C299.486,1535.88 225.971,1690.03 275.632,1830.24C325.293,1970.45 479.444,2043.97 619.654,1994.31L807.272,1927.86C859.543,1984.93 934.675,2020.75 1018.11,2020.75L1922.02,2020.75C2079.8,2020.75 2207.89,1892.66 2207.89,1734.88C2207.89,1593.92 2105.65,1476.66 1971.33,1453.26C2013.2,1386.02 2025.22,1301.04 1996.75,1220.64C1963.41,1126.52 1882.99,1062.45 1791.32,1045.53C1807.33,999.225 1808.35,947.394 1790.74,897.673C1758.28,806.04 1672.15,748.668 1580.18,748.36C1584.75,714.871 1581.62,679.818 1569.56,645.775C1557.79,612.542 1538.8,583.916 1514.99,561.042C1508.27,466.844 1347.82,338.861 1347.82,338.861C1267.73,223.638 977.019,130.987 996.365,184.887C1028.78,239.542 1053.88,291.643 1035.62,328.593C995.589,337.134 907.707,520.49 979.075,622.36ZM1238.39,1604.84C1290.75,1604.84 1333.25,1647.35 1333.25,1699.71C1333.25,1752.07 1290.75,1794.57 1238.39,1794.57C1186.03,1794.57 1143.53,1752.07 1143.53,1699.71C1143.53,1647.35 1186.03,1604.84 1238.39,1604.84ZM921.971,1029.95C1026.96,1029.95 1112.2,1115.19 1112.2,1220.18C1112.2,1325.17 1026.96,1410.41 921.971,1410.41C816.982,1410.41 731.745,1325.17 731.745,1220.18C731.745,1115.19 816.982,1029.95 921.971,1029.95ZM1565.23,1029.95C1670.22,1029.95 1755.46,1115.19 1755.46,1220.18C1755.46,1325.17 1670.22,1410.41 1565.23,1410.41C1460.24,1410.41 1375.01,1325.17 1375.01,1220.18C1375.01,1115.19 1460.24,1029.95 1565.23,1029.95Z" style="fill:rgb(144,80,0);"/>
        </g>
        <g transform="matrix(0.549224,0,0,0.57024,1781.27,-2721.89)">
            <circle cx="1096.21" cy="2473.24" r="190.226" style="fill:white;"/>
        </g>
        <g transform="matrix(0.549224,0,0,0.57024,1427.97,-2721.89)">
            <circle cx="1096.21" cy="2473.24" r="190.226" style="fill:white;"/>
        </g>
        <g transform="matrix(0.273896,0,0,0.284376,1903.57,-1741.44)">
            <circle cx="1096.21" cy="2473.24" r="190.226" style="fill:rgb(255,120,158);"/>
        </g>
        <g transform="matrix(0.549224,0,0,0.57024,1523.67,-2007.35)">
            <path d="M1568.72,1130.88C1621.08,1130.88 1663.59,1173.39 1663.59,1225.75C1663.59,1278.11 1621.08,1320.61 1568.72,1320.61C1516.37,1320.61 1473.86,1278.11 1473.86,1225.75C1473.86,1173.39 1516.37,1130.88 1568.72,1130.88ZM921.063,1128.13C973.421,1128.13 1015.93,1170.64 1015.93,1222.99C1015.93,1275.35 973.421,1317.86 921.063,1317.86C868.706,1317.86 826.198,1275.35 826.198,1222.99C826.198,1170.64 868.706,1128.13 921.063,1128.13Z"/>
        </g>
        <g transform="matrix(0.549224,0,0,0.57024,1523.67,-2007.35)">
            <path d="M979.075,622.36L839.559,671.774C725.514,712.168 665.717,837.553 706.111,951.599C716.456,980.806 732.375,1006.46 752.243,1027.77L615.178,1076.31C498.597,1117.6 437.472,1245.78 478.764,1362.36C491.254,1397.62 511.695,1427.81 537.359,1451.63L439.696,1486.22C299.486,1535.88 225.971,1690.03 275.632,1830.24C325.293,1970.45 479.444,2043.97 619.654,1994.31L807.272,1927.86C859.543,1984.93 934.675,2020.75 1018.11,2020.75L1922.02,2020.75C2079.8,2020.75 2207.89,1892.66 2207.89,1734.88C2207.89,1593.92 2105.65,1476.66 1971.33,1453.26C2013.2,1386.02 2025.22,1301.04 1996.75,1220.64C1963.41,1126.52 1882.99,1062.45 1791.32,1045.53C1807.33,999.225 1808.35,947.394 1790.74,897.673C1758.28,806.04 1672.15,748.668 1580.18,748.36C1584.75,714.871 1581.62,679.818 1569.56,645.775C1557.79,612.542 1538.8,583.916 1514.99,561.042C1508.27,466.844 1347.82,338.861 1347.82,338.861C1267.73,223.638 977.019,130.987 996.365,184.887C1028.78,239.542 1053.88,291.643 1035.62,328.593C995.589,337.134 907.707,520.49 979.075,622.36ZM1238.39,1604.84C1290.75,1604.84 1333.25,1647.35 1333.25,1699.71C1333.25,1752.07 1290.75,1794.57 1238.39,1794.57C1186.03,1794.57 1143.53,1752.07 1143.53,1699.71C1143.53,1647.35 1186.03,1604.84 1238.39,1604.84ZM921.971,1029.95C1026.96,1029.95 1112.2,1115.19 1112.2,1220.18C1112.2,1325.17 1026.96,1410.41 921.971,1410.41C816.982,1410.41 731.745,1325.17 731.745,1220.18C731.745,1115.19 816.982,1029.95 921.971,1029.95ZM1565.23,1029.95C1670.22,1029.95 1755.46,1115.19 1755.46,1220.18C1755.46,1325.17 1670.22,1410.41 1565.23,1410.41C1460.24,1410.41 1375.01,1325.17 1375.01,1220.18C1375.01,1115.19 1460.24,1029.95 1565.23,1029.95Z" style="fill:rgb(144,80,0);"/>
        </g>
        <g transform="matrix(0.549224,0,0,0.57024,523.608,-1503.77)">
            <path d="M979.075,622.36L839.559,671.774C725.514,712.168 665.717,837.553 706.111,951.599C716.456,980.806 732.375,1006.46 752.243,1027.77L615.178,1076.31C498.597,1117.6 437.472,1245.78 478.764,1362.36C491.254,1397.62 511.695,1427.81 537.359,1451.63L439.696,1486.22C299.486,1535.88 225.971,1690.03 275.632,1830.24C325.293,1970.45 479.444,2043.97 619.654,1994.31L807.272,1927.86C859.543,1984.93 934.675,2020.75 1018.11,2020.75L1922.02,2020.75C2079.8,2020.75 2207.89,1892.66 2207.89,1734.88C2207.89,1593.92 2105.65,1476.66 1971.33,1453.26C2013.2,1386.02 2025.22,1301.04 1996.75,1220.64C1963.41,1126.52 1882.99,1062.45 1791.32,1045.53C1807.33,999.225 1808.35,947.394 1790.74,897.673C1758.28,806.04 1672.15,748.668 1580.18,748.36C1584.75,714.871 1581.62,679.818 1569.56,645.775C1557.79,612.542 1538.8,583.916 1514.99,561.042C1508.27,466.844 1347.82,338.861 1347.82,338.861C1267.73,223.638 977.019,130.987 996.365,184.887C1028.78,239.542 1053.88,291.643 1035.62,328.593C995.589,337.134 907.707,520.49 979.075,622.36Z" style="fill:rgb(144,80,0);"/>
        </g>
        <g transform="matrix(0.549224,0,0,0.57024,781.206,-2218.31)">
            <circle cx="1096.21" cy="2473.24" r="190.226" style="fill:white;"/>
        </g>
        <g transform="matrix(0.549224,0,0,0.57024,427.911,-2218.31)">
            <circle cx="1096.21" cy="2473.24" r="190.226" style="fill:white;"/>
        </g>
        <g transform="matrix(0.273896,0,0,0.284376,903.514,-1237.86)">
            <circle cx="1096.21" cy="2473.24" r="190.226" style="fill:rgb(255,120,158);"/>
        </g>
        <g transform="matrix(0.549224,0,0,0.57024,523.608,-1503.77)">
            <path d="M1568.72,1130.88C1621.08,1130.88 1663.59,1173.39 1663.59,1225.75C1663.59,1278.11 1621.08,1320.61 1568.72,1320.61C1516.37,1320.61 1473.86,1278.11 1473.86,1225.75C1473.86,1173.39 1516.37,1130.88 1568.72,1130.88ZM921.063,1128.13C973.421,1128.13 1015.93,1170.64 1015.93,1222.99C1015.93,1275.35 973.421,1317.86 921.063,1317.86C868.706,1317.86 826.198,1275.35 826.198,1222.99C826.198,1170.64 868.706,1128.13 921.063,1128.13Z"/>
        </g>
        <g transform="matrix(0.549224,0,0,0.57024,523.608,-1503.77)">
            <path d="M979.075,622.36L839.559,671.774C725.514,712.168 665.717,837.553 706.111,951.599C716.456,980.806 732.375,1006.46 752.243,1027.77L615.178,1076.31C498.597,1117.6 437.472,1245.78 478.764,1362.36C491.254,1397.62 511.695,1427.81 537.359,1451.63L439.696,1486.22C299.486,1535.88 225.971,1690.03 275.632,1830.24C325.293,1970.45 479.444,2043.97 619.654,1994.31L807.272,1927.86C859.543,1984.93 934.675,2020.75 1018.11,2020.75L1922.02,2020.75C2079.8,2020.75 2207.89,1892.66 2207.89,1734.88C2207.89,1593.92 2105.65,1476.66 1971.33,1453.26C2013.2,1386.02 2025.22,1301.04 1996.75,1220.64C1963.41,1126.52 1882.99,1062.45 1791.32,1045.53C1807.33,999.225 1808.35,947.394 1790.74,897.673C1758.28,806.04 1672.15,748.668 1580.18,748.36C1584.75,714.871 1581.62,679.818 1569.56,645.775C1557.79,612.542 1538.8,583.916 1514.99,561.042C1508.27,466.844 1347.82,338.861 1347.82,338.861C1267.73,223.638 977.019,130.987 996.365,184.887C1028.78,239.542 1053.88,291.643 1035.62,328.593C995.589,337.134 907.707,520.49 979.075,622.36ZM1238.39,1604.84C1290.75,1604.84 1333.25,1647.35 1333.25,1699.71C1333.25,1752.07 1290.75,1794.57 1238.39,1794.57C1186.03,1794.57 1143.53,1752.07 1143.53,1699.71C1143.53,1647.35 1186.03,1604.84 1238.39,1604.84ZM921.971,1029.95C1026.96,1029.95 1112.2,1115.19 1112.2,1220.18C1112.2,1325.17 1026.96,1410.41 921.971,1410.41C816.982,1410.41 731.745,1325.17 731.745,1220.18C731.745,1115.19 816.982,1029.95 921.971,1029.95ZM1565.23,1029.95C1670.22,1029.95 1755.46,1115.19 1755.46,1220.18C1755.46,1325.17 1670.22,1410.41 1565.23,1410.41C1460.24,1410.41 1375.01,1325.17 1375.01,1220.18C1375.01,1115.19 1460.24,1029.95 1565.23,1029.95Z" style="fill:rgb(144,80,0);"/>
        </g>
    </g>
</svg>
